<mxfile host="app.diagrams.net" modified="2024-04-23T19:37:45.116Z" agent="Mozilla/5.0 (Macintosh; Intel Mac OS X 10_15_7) AppleWebKit/537.36 (KHTML, like Gecko) Chrome/124.0.0.0 Safari/537.36" version="24.2.8" etag="OpayL69ZBs8FCNRmuCQm" type="github">
  <diagram name="Page-1" id="fHI24366XxTnM67q4D95">
    <mxGraphModel>
      <root>
        <mxCell id="0" />
        <mxCell id="1" parent="0" />
      </root>
    </mxGraphModel>
  </diagram>
</mxfile>
